<?xml version="1.0" standalone="no"?>
<!DOCTYPE svg PUBLIC "-//W3C//DTD SVG 20010904//EN"
 "http://www.w3.org/TR/2001/REC-SVG-20010904/DTD/svg10.dtd">
<svg version="1.0" xmlns="http://www.w3.org/2000/svg"
 width="512.000000pt" height="512.000000pt" viewBox="0 0 512.000000 512.000000"
 preserveAspectRatio="xMidYMid meet">
<metadata>
Created by potrace 1.14, written by Peter Selinger 2001-2017
</metadata>
<g transform="translate(0.000000,512.000000) scale(0.100000,-0.100000)"
fill="#000000" stroke="none">
<path d="M298 5005 c-2 -2 -25 -6 -53 -9 -53 -7 -146 -45 -170 -70 -30 -30
-15 -46 49 -53 56 -7 178 -68 224 -114 22 -21 58 -74 81 -118 23 -44 47 -86
54 -93 38 -40 66 -81 62 -88 -11 -18 18 -111 52 -167 26 -43 35 -71 37 -110 3
-54 49 -160 92 -213 32 -38 47 -71 50 -110 6 -61 42 -164 73 -205 25 -34 29
-46 24 -83 -9 -74 50 -223 117 -293 32 -34 45 -58 55 -104 27 -117 45 -160
163 -388 7 -15 11 -38 8 -51 -12 -47 67 -260 101 -273 7 -3 13 -11 13 -19 0
-8 4 -14 9 -14 8 0 111 -200 143 -280 37 -89 140 -250 160 -250 4 0 8 -5 8
-11 0 -7 8 -19 18 -28 10 -9 28 -29 41 -46 59 -78 301 -311 446 -430 27 -22
57 -48 66 -57 10 -9 27 -21 38 -28 12 -6 27 -25 35 -43 33 -80 147 -162 461
-332 98 -54 145 -84 145 -94 0 -15 79 -86 132 -118 107 -65 204 -92 558 -157
14 -2 102 -22 195 -44 94 -22 188 -43 210 -48 22 -4 42 -8 45 -9 3 -1 19 -5
35 -10 53 -15 118 -47 190 -93 113 -73 171 -104 410 -218 120 -58 148 -68 195
-68 89 0 159 38 160 87 0 48 -125 174 -236 235 -40 23 -83 50 -95 59 -115 96
-139 140 -165 303 -6 39 -11 70 -19 115 -11 58 -36 123 -70 180 -34 56 -162
215 -174 215 -13 1 -75 62 -77 77 -7 42 -16 64 -35 82 -12 11 -23 30 -25 43
-9 76 -15 98 -34 140 -11 26 -33 61 -47 79 -15 18 -29 41 -30 53 -7 43 -35
114 -62 158 -16 25 -31 65 -34 89 -7 60 -34 134 -65 183 -28 45 -87 106 -102
106 -5 0 -25 24 -44 53 -18 30 -46 63 -61 75 -22 18 -26 27 -22 57 4 30 0 43
-24 70 -21 24 -28 40 -25 63 6 55 -49 139 -127 195 -11 7 -20 29 -22 56 -3 23
-14 58 -25 77 -30 47 -103 109 -161 135 -27 13 -51 30 -53 38 -2 9 -9 39 -16
66 -17 76 -62 119 -156 150 -50 16 -50 16 -93 110 -64 140 -130 200 -294 271
-60 25 -74 37 -114 92 -43 61 -146 147 -220 185 -18 10 -40 34 -53 59 -12 24
-36 60 -55 81 -38 43 -136 98 -165 92 -15 -3 -30 12 -65 65 -54 84 -104 113
-196 114 -33 1 -59 4 -59 8 0 5 -24 32 -54 62 -58 58 -88 71 -190 81 -52 5
-64 11 -100 47 -81 80 -160 121 -220 114 -23 -3 -38 4 -65 30 -40 37 -97 67
-151 79 -19 4 -44 17 -55 30 -37 39 -168 97 -275 120 -8 2 -53 16 -100 32 -72
26 -188 41 -202 28z"/>
</g>
</svg>
